# xmcd
#
# Track frame offsets:
#	150
#	17431
#	36541
#	50436
#	63505
#	81651
#	94613
#	112255
#	128483
#	140320
#	154609
#	170881
#	191815
#	208734
#	225539
#	244859
#	262104
#	281323
#
# Disc length: 3951 seconds
#
# Revision: 3
# Processed by: cddbd v1.5.1PL0 Copyright (c) Steve Scherf et al.
# Submitted via: audiograbber 1.83.01
#
DISCID=080f6d12
DTITLE=2003-07 Country Radio - 2003-07 Country Radio
DYEAR=2003
DGENRE=Country
TTITLE0=Alan Jackson and Jimmy Buffett - It's Five O'Clock Somewhere
TTITLE1=Rodney Atkins - Honestly (Write Me A List)
TTITLE2=Phil Vassar - Ultimate Love
TTITLE3=Marty Stuart and His Fabulous Superlatives - If There Ain't There Ought'a
TTITLE3=Be
TTITLE4=Martina McBride - This One's For The Girls
TTITLE5=Dean Miller - The Gun Ain't Loaded
TTITLE6=Gary Allen - Tough Little Boys
TTITLE7=Patty Lovelass - Lovin' All Night
TTITLE8=Hometown News - First Second Chance
TTITLE9=Kenny Rogers - I'm Missing You
TTITLE10=The Warren Brothers - Break The Record
TTITLE11=Dixie Chicks - Godspeed (Sweet Dreams)
TTITLE12=Rick Trevino - In My Dreams
TTITLE13=Ashley Gearing - Can You Hear Me When I Talk To You?
TTITLE14=Daron Norwood - In God We Trust
TTITLE15=Dolly Parton - I'm Gone
TTITLE16=Matt Linsin - I Can, I Will, I Do
TTITLE17=Allison Paige - Send A Message
EXTD=
EXTT0=
EXTT1=
EXTT2=
EXTT3=
EXTT4=
EXTT5=
EXTT6=
EXTT7=
EXTT8=
EXTT9=
EXTT10=
EXTT11=
EXTT12=
EXTT13=
EXTT14=
EXTT15=
EXTT16=
EXTT17=
PLAYORDER=
